<?xml version="1.0" standalone="no"?>
<!DOCTYPE svg PUBLIC "-//W3C//DTD SVG 20010904//EN"
 "http://www.w3.org/TR/2001/REC-SVG-20010904/DTD/svg10.dtd">
<svg version="1.0" xmlns="http://www.w3.org/2000/svg"
 width="727.000000pt" height="745.000000pt" viewBox="0 0 727.000000 745.000000"
 preserveAspectRatio="xMidYMid meet">

<g transform="translate(0.000000,745.000000) scale(0.100000,-0.100000)"
fill="#000000" stroke="none">
<path d="M4368 7404 c-3 -3 -1 -22 4 -42 25 -97 29 -238 8 -302 -4 -14 -13
-44 -19 -67 -6 -24 -16 -62 -22 -85 -6 -24 -15 -52 -19 -63 -5 -11 -18 -47
-31 -80 -13 -33 -49 -111 -80 -173 l-57 -112 89 -45 c49 -24 109 -57 133 -74
25 -16 47 -27 50 -23 3 3 6 56 6 118 0 62 4 115 9 118 5 3 11 18 14 33 4 16
11 48 16 73 6 25 15 68 21 95 5 28 15 70 21 95 29 117 18 380 -18 453 -8 16
-35 41 -61 58 -48 30 -55 33 -64 23z"/>
<path d="M1667 7150 c-26 -17 -12 -56 71 -203 12 -21 22 -46 22 -57 0 -10 5
-22 10 -25 6 -3 10 -17 10 -30 0 -13 4 -34 9 -47 5 -13 14 -41 19 -63 6 -22
15 -58 21 -81 6 -23 15 -122 21 -220 10 -190 35 -401 52 -446 11 -28 26 -35
44 -19 19 18 148 63 221 77 95 18 181 18 278 -1 l76 -14 90 89 c50 50 110 104
135 122 24 17 44 35 44 39 0 3 -12 15 -27 25 -46 29 -133 116 -166 164 -17 25
-63 81 -102 125 -40 44 -74 87 -77 95 -16 42 -77 106 -155 162 -100 72 -233
199 -233 224 0 22 -86 64 -155 76 -88 15 -189 19 -208 8z"/>
<path d="M3501 6480 c-203 -28 -434 -110 -616 -218 -113 -67 -139 -87 -244
-191 l-104 -104 -98 18 c-246 45 -483 -32 -673 -221 -88 -87 -146 -171 -205
-295 -161 -337 -161 -731 0 -1068 126 -265 323 -441 569 -508 88 -24 262 -24
350 0 185 50 354 172 475 341 58 81 138 249 165 346 84 303 60 615 -71 889
-58 122 -116 206 -200 290 -51 51 -59 64 -49 76 7 8 15 15 19 15 3 0 53 46
111 103 224 217 478 354 771 418 82 18 137 23 264 23 88 1 187 -2 220 -6 l60
-7 -55 25 c-109 51 -247 75 -445 79 -99 2 -209 0 -244 -5z m-1385 -894 c159
-73 269 -217 326 -427 32 -120 32 -328 0 -448 -57 -211 -165 -353 -328 -428
-51 -24 -72 -28 -149 -28 -77 0 -98 4 -149 28 -163 75 -271 217 -328 428 -32
120 -32 328 0 448 64 236 211 406 389 451 64 16 176 5 239 -24z"/>
<path d="M1868 5555 c-148 -48 -276 -204 -330 -404 -30 -109 -30 -324 0 -434
48 -175 152 -316 280 -379 59 -29 76 -33 147 -33 71 0 88 4 147 33 128 63 232
204 280 379 30 111 30 325 0 436 -65 238 -229 404 -409 413 -42 2 -86 -2 -115
-11z"/>
<path d="M3840 6345 c-8 -2 -49 -9 -90 -15 -289 -48 -585 -206 -809 -434 l-74
-75 58 -68 c80 -93 142 -192 186 -293 296 -686 -45 -1507 -675 -1627 -95 -18
-229 -13 -321 13 -106 29 -102 30 -109 -8 -9 -45 -25 -155 -36 -258 -10 -91
-24 -175 -40 -255 -6 -27 -15 -70 -19 -95 -5 -25 -18 -92 -30 -150 -12 -58
-27 -130 -33 -160 -6 -30 -37 -109 -68 -175 -53 -110 -71 -168 -84 -265 -11
-82 -19 -108 -47 -165 -43 -89 -93 -149 -213 -256 -59 -53 -120 -117 -134
-140 -14 -24 -37 -60 -52 -79 -30 -39 -77 -129 -170 -325 -92 -194 -114 -253
-151 -407 -5 -21 -13 -56 -19 -78 -5 -22 -15 -59 -21 -82 -5 -24 -13 -55 -16
-71 -3 -15 -9 -30 -14 -33 -5 -3 -9 -12 -9 -20 0 -8 -8 -33 -19 -57 -10 -23
-28 -67 -39 -97 -11 -30 -28 -75 -37 -100 -31 -85 -68 -135 -194 -263 -69 -70
-127 -132 -129 -137 -3 -7 761 -10 2210 -10 l2214 0 -32 98 c-17 53 -41 120
-54 147 -12 28 -29 66 -37 85 -9 19 -28 63 -44 97 -16 34 -29 69 -29 77 0 8
-4 18 -10 21 -5 3 -10 14 -10 25 0 10 -9 35 -20 57 -11 21 -33 70 -50 108 -33
75 -84 176 -119 238 -144 254 -142 244 -131 557 10 263 28 469 41 485 5 5 9
17 9 27 0 10 4 26 9 36 21 40 51 113 51 125 0 7 4 17 8 22 11 13 28 75 42 155
15 83 28 119 54 149 23 25 74 51 103 51 22 0 105 -61 184 -134 79 -73 89 -80
164 -116 59 -28 73 -31 133 -27 37 3 81 8 97 12 46 12 114 61 177 129 l58 61
147 6 c82 3 162 10 178 16 51 17 123 52 130 62 3 6 33 31 67 57 56 42 67 47
115 47 29 0 59 -5 66 -11 36 -30 253 -41 312 -16 81 33 256 243 321 384 61
131 103 321 114 515 3 67 14 142 23 170 9 28 17 62 17 77 0 15 5 40 11 55 24
58 27 69 38 121 28 134 6 317 -44 367 -49 49 -120 96 -175 114 -36 12 -73 26
-82 31 -10 6 -25 10 -35 10 -9 0 -44 9 -77 20 -106 36 -122 40 -140 40 -17 0
-181 60 -218 81 -10 5 -25 9 -33 9 -8 0 -23 4 -33 9 -9 5 -34 16 -54 25 -21 9
-55 23 -75 32 -21 9 -47 20 -58 24 -11 4 -45 19 -75 33 -30 14 -71 31 -90 40
-19 8 -54 22 -78 32 -39 17 -71 46 -129 121 -13 16 -23 35 -23 42 0 6 -3 12
-8 12 -4 0 -13 15 -20 33 -7 17 -18 40 -23 49 -5 10 -9 27 -9 38 0 56 -47 213
-77 257 -47 70 -133 172 -166 197 -37 28 -186 106 -204 106 -7 0 -47 29 -90
66 -88 73 -178 128 -267 160 -48 17 -65 29 -79 55 -27 48 -66 88 -110 110 -40
21 -170 62 -272 85 -55 13 -370 28 -405 19z m35 -155 c39 -6 87 -15 107 -21
34 -9 37 -12 26 -29 -21 -33 -66 -45 -233 -65 -129 -16 -565 -20 -600 -6 -18
7 -15 10 20 25 74 32 220 76 300 90 95 17 282 20 380 6z"/>
</g>
</svg>
